<svg xmlns="http://www.w3.org/2000/svg" viewBox="0 0 210.3 205.31"><defs><style>.cls-1{fill:#fde3b7;}.cls-2{fill:#251410;}.cls-3{fill:#9b6436;}.cls-4{fill:#8ececc;}.cls-5{fill:#bed682;}.cls-6{fill:#1d1d1b;}</style></defs><title>Tempo_Buono_Logo</title><g id="Capa_2" data-name="Capa 2"><g id="Capa_1-2" data-name="Capa 1"><circle class="cls-1" cx="112.87" cy="72.26" r="44.52"/><path class="cls-2" d="M4.7,181.36V162.12H0v-3.71H13.15v3.71H8.42v19.24Z"/><path class="cls-2" d="M19,171.77v5.88H29.17v3.71H15.31v-23H29.17v3.71H19v6h8.7v3.71Z"/><path class="cls-2" d="M48,181.36V165.8l-6.49,4.83-6.5-4.83v15.56H31.34V158.44L41.55,166c1.67-1.26,3.36-2.52,5.09-3.79l5.12-3.79v22.92Z"/><path class="cls-2" d="M55.47,181.36v-23h3.77a10.34,10.34,0,0,1,4.1.8,10.8,10.8,0,0,1,3.33,2.18,10.07,10.07,0,0,1,2.22,3.23,10.18,10.18,0,0,1,0,8,10,10,0,0,1-2.21,3.23A10.52,10.52,0,0,1,63.36,178a10.85,10.85,0,0,1-4.18.8v2.57ZM66,168.59a6.22,6.22,0,0,0-.51-2.51A6.68,6.68,0,0,0,64.07,164a6.59,6.59,0,0,0-2.15-1.39,7.22,7.22,0,0,0-2.74-.51v13a7.22,7.22,0,0,0,2.74-.51,6.42,6.42,0,0,0,3.56-3.45A6.28,6.28,0,0,0,66,168.59Z"/><path class="cls-2" d="M82.72,181.36a11.16,11.16,0,0,1-4.47-.9A11.3,11.3,0,0,1,74.6,178a11.61,11.61,0,0,1-2.47-3.64,11.34,11.34,0,0,1,0-9,11.65,11.65,0,0,1,2.47-3.65,11.83,11.83,0,0,1,3.65-2.47,11.41,11.41,0,0,1,8.93,0,11.68,11.68,0,0,1,6.14,6.12,11.46,11.46,0,0,1,0,9A11.81,11.81,0,0,1,90.84,178a11.48,11.48,0,0,1-8.12,3.36Zm0-19.27a7.4,7.4,0,0,0-3,.62,7.86,7.86,0,0,0-2.47,1.67,7.7,7.7,0,0,0-1.67,2.47,7.74,7.74,0,0,0,0,6.07A7.73,7.73,0,0,0,79.69,177a7.56,7.56,0,0,0,3,.61,7.48,7.48,0,0,0,3-.61,7.87,7.87,0,0,0,2.47-1.65,7.75,7.75,0,0,0,1.69-2.47,7.74,7.74,0,0,0,0-6.07,7.75,7.75,0,0,0-1.69-2.47,8.1,8.1,0,0,0-2.47-1.67A7.32,7.32,0,0,0,82.72,162.09Z"/><path class="cls-2" d="M106.36,181.36v-23h3.93a7.58,7.58,0,0,1,7.1,4.6,7.74,7.74,0,0,1,.32,5.05,8.11,8.11,0,0,1-.8,1.92,7.07,7.07,0,0,1,.82,1.85,7.57,7.57,0,0,1,.26,1.95,7.44,7.44,0,0,1-.6,3,7.89,7.89,0,0,1-1.64,2.43,7.42,7.42,0,0,1-2.46,1.62,8,8,0,0,1-3.07.59ZM114.28,166a3.85,3.85,0,0,0-.3-1.52,3.61,3.61,0,0,0-.83-1.24,3.86,3.86,0,0,0-1.32-.83,4.61,4.61,0,0,0-1.76-.31v7.79a4.72,4.72,0,0,0,1.73-.29,4,4,0,0,0,1.33-.82,3.44,3.44,0,0,0,.85-1.24A3.92,3.92,0,0,0,114.28,166Zm-4.21,11.66a4.23,4.23,0,0,0,3.06-1.1,3.69,3.69,0,0,0,1.15-2.8c0-.1,0-.27,0-.51a1.24,1.24,0,0,0-.2-.57,11,11,0,0,1-1.92.68,8.63,8.63,0,0,1-2,.25Z"/><path class="cls-2" d="M130.67,181.36a9.75,9.75,0,0,1-3.93-.79,10.32,10.32,0,0,1-3.2-2.16,10.09,10.09,0,0,1-2.16-3.21,9.67,9.67,0,0,1-.79-3.92V158.41h3.71v12.87a6.35,6.35,0,0,0,1.86,4.51,6.4,6.4,0,0,0,10.4-2,6,6,0,0,0,.52-2.49V158.41h3.71v12.87a9.52,9.52,0,0,1-.81,3.92,10.43,10.43,0,0,1-2.16,3.21,10.11,10.11,0,0,1-7.15,3Z"/><path class="cls-2" d="M154.77,181.36a11.16,11.16,0,0,1-4.47-.9,11.3,11.3,0,0,1-3.65-2.46,11.61,11.61,0,0,1-2.47-3.64,11.34,11.34,0,0,1,0-9,11.65,11.65,0,0,1,2.47-3.65,11.83,11.83,0,0,1,3.65-2.47,11.41,11.41,0,0,1,8.93,0,11.68,11.68,0,0,1,6.14,6.12,11.46,11.46,0,0,1,0,9,11.81,11.81,0,0,1-2.48,3.64,11.48,11.48,0,0,1-8.12,3.36Zm0-19.27a7.4,7.4,0,0,0-3,.62,7.83,7.83,0,0,0-4.15,4.14,7.86,7.86,0,0,0,0,6.07,8,8,0,0,0,1.67,2.47,7.8,7.8,0,0,0,2.48,1.65,7.56,7.56,0,0,0,3,.61,7.48,7.48,0,0,0,3-.61,7.87,7.87,0,0,0,2.47-1.65,7.75,7.75,0,0,0,1.69-2.47,7.74,7.74,0,0,0,0-6.07,7.75,7.75,0,0,0-1.69-2.47,8.1,8.1,0,0,0-2.47-1.67A7.32,7.32,0,0,0,154.77,162.09Z"/><path class="cls-2" d="M181.1,181.36v-8.75l-8.63-6.72v15.47h-3.72v-23l12.35,9.59v-9.53h3.71v23Z"/><path class="cls-2" d="M198.79,181.36a11.16,11.16,0,0,1-4.47-.9,11.3,11.3,0,0,1-3.65-2.46,11.61,11.61,0,0,1-2.47-3.64,11.34,11.34,0,0,1,0-9,11.65,11.65,0,0,1,2.47-3.65,11.83,11.83,0,0,1,3.65-2.47,11.41,11.41,0,0,1,8.93,0,11.68,11.68,0,0,1,6.14,6.12,11.46,11.46,0,0,1,0,9,11.81,11.81,0,0,1-2.48,3.64,11.48,11.48,0,0,1-8.12,3.36Zm0-19.27a7.4,7.4,0,0,0-3,.62,7.83,7.83,0,0,0-4.15,4.14,7.86,7.86,0,0,0,0,6.07,8,8,0,0,0,1.67,2.47,7.8,7.8,0,0,0,2.48,1.65,7.56,7.56,0,0,0,3,.61,7.48,7.48,0,0,0,3-.61,7.87,7.87,0,0,0,2.47-1.65,7.75,7.75,0,0,0,1.69-2.47,7.74,7.74,0,0,0,0-6.07,7.75,7.75,0,0,0-1.69-2.47,8.1,8.1,0,0,0-2.47-1.67A7.32,7.32,0,0,0,198.79,162.09Z"/><path class="cls-3" d="M27.5,205.31H25.08l-1-2.31H16.57l-1,2.31h-2.4l6.91-15.6h.52Zm-10-4.47h5.57l-2.78-6.45Z"/><path class="cls-3" d="M30.32,205.31V189.73h2.16v13.42h3.24v2.16Z"/><path class="cls-3" d="M39.3,205.31v-15.6h6.2v2.15h-4v3h4V197h-4v8.27Z"/><path class="cls-3" d="M60.72,205.31H58.3l-1-2.31H49.79l-1,2.31h-2.4l6.91-15.6h.52Zm-10-4.47h5.57l-2.78-6.45Z"/><path class="cls-3" d="M62.68,203.13a4.8,4.8,0,0,0,3.09-1.52,4.67,4.67,0,0,0,.91-1.46,4.73,4.73,0,0,0,.32-1.72v-8.7h2.16v8.7a6.67,6.67,0,0,1-.51,2.58,6.91,6.91,0,0,1-3.44,3.62,6.87,6.87,0,0,1-2.53.66Z"/><path class="cls-3" d="M80,205.31a7.49,7.49,0,0,1-3-.61A8,8,0,0,1,74.46,203a7.59,7.59,0,0,1-1.69-2.47,7.49,7.49,0,0,1-.61-3,7.66,7.66,0,0,1,.61-3.05A7.86,7.86,0,0,1,74.46,192a8.14,8.14,0,0,1,2.48-1.67,7.83,7.83,0,0,1,6.06,0A8.19,8.19,0,0,1,85.49,192a8,8,0,0,1,1.68,2.48,7.66,7.66,0,0,1,.62,3.05,7.5,7.5,0,0,1-.62,3A7.73,7.73,0,0,1,85.49,203,8,8,0,0,1,83,204.7,7.49,7.49,0,0,1,80,205.31Zm0-13.45a5.36,5.36,0,0,0-2.19.45,5.65,5.65,0,0,0-1.8,1.21,5.58,5.58,0,0,0-1.66,4,5.39,5.39,0,0,0,.44,2.19A5.53,5.53,0,0,0,76,201.5a5.82,5.82,0,0,0,1.8,1.21,5.67,5.67,0,0,0,4.38,0A5.59,5.59,0,0,0,84,201.5a5.53,5.53,0,0,0,1.22-1.79,5.58,5.58,0,0,0,0-4.39,5.7,5.7,0,0,0-3-3A5.36,5.36,0,0,0,80,191.86Z"/><path class="cls-3" d="M91,205.31V189.73h2.59a4.89,4.89,0,0,1,2,.41,5.21,5.21,0,0,1,2.76,2.75,4.9,4.9,0,0,1,.41,2,4.82,4.82,0,0,1-.54,2.22,5.28,5.28,0,0,1-1.48,1.81l2.52,6.37H96.74l-2-5.39a6,6,0,0,1-.78.16,3.74,3.74,0,0,1-.82,0v5.22Zm5.62-10.4a3.07,3.07,0,0,0-.25-1.2,3,3,0,0,0-.7-1,3.23,3.23,0,0,0-1.09-.65,3.82,3.82,0,0,0-1.42-.19v6.05a3.52,3.52,0,0,0,1.44-.2,3.23,3.23,0,0,0,1.09-.65,2.91,2.91,0,0,0,.69-1A3,3,0,0,0,96.64,194.91Z"/><path class="cls-3" d="M105.12,198.62v4.53h4.55v2.16H103v-15.6h6.71v2.15h-4.55v4.6h4.55v2.16Z"/><path class="cls-3" d="M114.53,205.27a3.14,3.14,0,0,1-1-.11,7.56,7.56,0,0,1-.91-.32l-.91-.48,1-1.9.84.46a4.57,4.57,0,0,0,.61.16,2.42,2.42,0,0,0,.66,0,2.38,2.38,0,0,0,1.12-.41,2.18,2.18,0,0,0,.76-.91,2.11,2.11,0,0,0,.24-1.44,2.39,2.39,0,0,0-1.28-1.86,4.7,4.7,0,0,1-2.5-4,4.46,4.46,0,0,1,.52-2.26v0a4.52,4.52,0,0,1,1.88-1.94,4.38,4.38,0,0,1,2.54-.56,4.45,4.45,0,0,1,.73.12,3.55,3.55,0,0,1,.7.22l-1,1.94a1.77,1.77,0,0,0-.62-.13,2.32,2.32,0,0,0-.83.12,2.94,2.94,0,0,0-.74.4,2.52,2.52,0,0,0-.57.64,2.39,2.39,0,0,0-.32.83,2.23,2.23,0,0,0,.14,1.52,2.28,2.28,0,0,0,1.09,1.16,4.54,4.54,0,0,1,1.8,1.68,4.62,4.62,0,0,1,.68,2.46,4.21,4.21,0,0,1-.37,1.76,4.65,4.65,0,0,1-2.46,2.45A4.37,4.37,0,0,1,114.53,205.27Z"/><path class="cls-3" d="M135,205.31a4.4,4.4,0,0,1-1.74-.35,4.49,4.49,0,0,1-1.41-1,4.44,4.44,0,0,1-1-1.41,4.34,4.34,0,0,1-.35-1.72,4.16,4.16,0,0,1,.4-1.73,5.83,5.83,0,0,1,1.12-1.59,6.23,6.23,0,0,1-1-1.41,4.33,4.33,0,0,1-.46-1.55,4.56,4.56,0,0,1,0-1,4,4,0,0,1,.47-1.53,4.4,4.4,0,0,1,1-1.23,4.37,4.37,0,0,1,2.93-1.12h1.08v2.15H135a2.26,2.26,0,0,0-.89.19,2.36,2.36,0,0,0-.72.49,2.49,2.49,0,0,0-.5.73,2.34,2.34,0,0,0-.18.88,2.39,2.39,0,0,0,.17.89,2.36,2.36,0,0,0,.49.72,2.69,2.69,0,0,0,.71.5,2.07,2.07,0,0,0,.86.18h6.34v2.16h-1.81v6.71Zm2.31-2.16V198.6h-2.4a2.11,2.11,0,0,0-.86.18,2.08,2.08,0,0,0-.7.5,2.71,2.71,0,0,0-.47.72,2.31,2.31,0,0,0-.17.86,2.45,2.45,0,0,0,.18.9,2.32,2.32,0,0,0,.5.72,2.36,2.36,0,0,0,.72.49,2.25,2.25,0,0,0,.89.18Z"/><path class="cls-3" d="M159.92,205.29a7.36,7.36,0,0,1-2.89-.7,8,8,0,0,1-3.92-4.13,7.87,7.87,0,0,1,0-5.88,7.86,7.86,0,0,1,3.92-4.13,7.55,7.55,0,0,1,2.89-.72v2.18a5.47,5.47,0,0,0-2,.55,5.58,5.58,0,0,0-1.66,1.22,5.28,5.28,0,0,0-1.11,1.74,5.42,5.42,0,0,0-.4,2.1,5.47,5.47,0,0,0,.4,2.09,5.22,5.22,0,0,0,1.11,1.75,5.58,5.58,0,0,0,1.66,1.22,5.67,5.67,0,0,0,2,.55Z"/><path class="cls-3" d="M177.06,205.31h-2.42l-1-2.31h-7.49l-1,2.31h-2.4l6.91-15.6h.51Zm-9.95-4.47h5.57l-2.79-6.45Z"/><path class="cls-3" d="M179.89,205.31v-15.6h6.19v2.15h-4v3h4V197h-4v8.27Z"/><path class="cls-3" d="M191.24,198.62v4.53h4.56v2.16h-6.71v-15.6h6.71v2.15h-4.56v4.6h4.56v2.16Zm0-9.78.63-3h2.87l-2.07,3Z"/><path class="cls-2" d="M117.3,85H41.49c-10.42,0-19.3,8.09-19.7,18.49a19.22,19.22,0,0,0,29.93,16.71,79.77,79.77,0,0,1-11.63-19.28,1.34,1.34,0,1,1,2.46-1,76.91,76.91,0,0,0,11.28,18.68,19.19,19.19,0,0,0,6.41-14.32,1.34,1.34,0,1,1,2.67,0,21.87,21.87,0,0,1-7.35,16.36,76.82,76.82,0,0,0,133-35.6H146.27a1.33,1.33,0,0,1-1.34-1.33h0a1.34,1.34,0,0,1,1.34-1.34h45.49l-.28,1.57a79.5,79.5,0,0,1-138,38.35A21.9,21.9,0,1,1,41,82.28H117.3a1.33,1.33,0,0,1,1.33,1.34h0A1.32,1.32,0,0,1,117.3,85Zm12.89-2.67h5.9a1.34,1.34,0,0,1,1.33,1.34h0A1.33,1.33,0,0,1,136.09,85h-5.9a1.32,1.32,0,0,1-1.33-1.33h0A1.33,1.33,0,0,1,130.19,82.28Z"/><path class="cls-2" d="M69.57,30.68a1.31,1.31,0,0,1-.91-.36,1.34,1.34,0,0,1-.06-1.89A61,61,0,0,1,107.5,9.58a1.34,1.34,0,0,1,.24,2.66,58.32,58.32,0,0,0-37.2,18A1.34,1.34,0,0,1,69.57,30.68Z"/><path class="cls-3" d="M164.17,105.84c-.57.11-1.12.23-1.64.37a61,61,0,0,1-96.19,3.69,17.41,17.41,0,0,0-4.56,0,26.65,26.65,0,0,0-5.33,1.43A70,70,0,0,0,174.77,105,45.62,45.62,0,0,0,164.17,105.84Z"/><path class="cls-3" d="M113,128.92a58.37,58.37,0,0,0,45.08-21.28c-5.88,2.26-10.55,5.12-23,4.22-16.3-1.17-19.83-9.11-28.64-7.64s-16.9,7.64-26.44,7.24a84.86,84.86,0,0,1-9.56-1A58.31,58.31,0,0,0,113,128.92Z"/><path class="cls-2" d="M54.53,70.46a58.18,58.18,0,0,1,4.54-22.63,1.34,1.34,0,0,0-2.46-1,61.09,61.09,0,0,0,9.73,63.11c1.24.14,2.58.36,4.1.59A58.25,58.25,0,0,1,54.53,70.46Z"/><path class="cls-2" d="M174.11,70.46A61.15,61.15,0,0,0,147.48,20a1.33,1.33,0,0,0-1.51,2.2,58.44,58.44,0,0,1,12.1,85.45,36,36,0,0,1,4.46-1.43A60.78,60.78,0,0,0,174.11,70.46Z"/><path class="cls-3" d="M113,131.59a61.09,61.09,0,0,0,49.54-25.38,36,36,0,0,0-4.46,1.43,58.36,58.36,0,0,1-87.63,2.85c-1.52-.23-2.86-.45-4.1-.59A61,61,0,0,0,113,131.59Z"/><path class="cls-2" d="M163,71.72a1.33,1.33,0,0,1-1.33-1.34,48.71,48.71,0,0,0-97.42,0,1.34,1.34,0,1,1-2.67,0,51.38,51.38,0,0,1,102.75,0A1.33,1.33,0,0,1,163,71.72Z"/><circle class="cls-4" cx="43.8" cy="33.8" r="6.68"/><circle class="cls-5" cx="187.13" cy="45" r="6.68"/><circle class="cls-4" cx="15.82" cy="43.44" r="6.68"/><path class="cls-2" d="M40.88,39.39a8.21,8.21,0,1,1,8.21-8.21A8.22,8.22,0,0,1,40.88,39.39Zm0-14.41a6.21,6.21,0,1,0,6.2,6.2A6.21,6.21,0,0,0,40.88,25Z"/><path class="cls-2" d="M12.86,48.23A8.21,8.21,0,1,1,21.07,40,8.22,8.22,0,0,1,12.86,48.23Zm0-14.41A6.21,6.21,0,1,0,19.07,40,6.21,6.21,0,0,0,12.86,33.82Z"/><path class="cls-2" d="M20.07,41.23a1,1,0,0,1-1-1V10.77a3.5,3.5,0,0,1,2.45-3.35l23-7.25a3.46,3.46,0,0,1,3.14.51,3.51,3.51,0,0,1,1.44,2.84V31.39a1,1,0,0,1-2,0V3.52a1.5,1.5,0,0,0-2-1.44l-23,7.25a1.5,1.5,0,0,0-1.06,1.44V40.22A1,1,0,0,1,20.07,41.23Z"/><path class="cls-2" d="M40,13a1,1,0,0,1-.29-2l7.93-2.39a1,1,0,0,1,.57,1.92L40.32,13A1,1,0,0,1,40,13Z"/><path class="cls-2" d="M20.18,19a1,1,0,0,1-.29-2l9.33-2.81a1,1,0,0,1,1.25.67,1,1,0,0,1-.67,1.24L20.47,19A1.45,1.45,0,0,1,20.18,19Z"/><circle class="cls-6" cx="34.85" cy="13.62" r="0.93"/><path class="cls-2" d="M34.85,15.89a2.27,2.27,0,1,1,2.27-2.27A2.27,2.27,0,0,1,34.85,15.89Zm0-2.67a.4.4,0,1,0,.4.4A.4.4,0,0,0,34.85,13.22Z"/><path class="cls-2" d="M190.08,56.41a8.21,8.21,0,1,1,8.21-8.2A8.22,8.22,0,0,1,190.08,56.41Zm0-14.41a6.21,6.21,0,1,0,6.21,6.21A6.21,6.21,0,0,0,190.08,42Z"/><path class="cls-2" d="M197.29,49.41a1,1,0,0,1-1-1V12.29l1.51.9c.29.18,7.12,4.31,8.07,9.92a9.38,9.38,0,0,1-2.8,8.85,1,1,0,1,1-1.25-1.57,7.36,7.36,0,0,0,2.08-6.94c-.55-3.25-3.69-6.05-5.61-7.49V48.41A1,1,0,0,1,197.29,49.41Z"/></g></g></svg>