<?xml version="1.0" encoding="utf-8"?>
<!-- Generator: Adobe Illustrator 23.0.2, SVG Export Plug-In . SVG Version: 6.00 Build 0)  -->
<svg version="1.1" id="Capa_1" xmlns="http://www.w3.org/2000/svg" xmlns:xlink="http://www.w3.org/1999/xlink" x="0px" y="0px"
	 viewBox="0 0 137.2 222.2" style="enable-background:new 0 0 137.2 222.2;" xml:space="preserve">
<style type="text/css">
	.st0{fill:#FDE3B7;}
</style>
<title>icon_monkey</title>
<g>
	<g id="Capa_1-2">
		<path class="st0" d="M127.5,138.3c0,0,6.5-15.2-2.2-24.2s-23.1-3.2-23.1-3.2c0.7-4.7-2.9-15.2-2.9-15.2s28.5,1.8,34.3-22.4
			c5.8-24.2-10.5-59.6-10.5-59.6c1.8-13.4-14.1-18.8-18.8-8s10.1,13,10.1,13s14.8,45.5,7.6,57.4s-27,7.6-27,7.6
			c3.7-2.8,7-5.9,10.1-9.4c0,0,14.1,2.2,14.8-9.8s-10.8-8-10.8-8S102.2,26.4,69,27.1S28.5,55.6,28.5,55.6s-9.4-2.2-8.7,10.8
			S35,76.9,35,76.9C38.3,83,46.6,87,46.6,87s-18.4,4.7-28.2-15.5s-2.5-48.4-2.5-48.4c9.4-9.4,5.4-24.9-4-20.2S7.2,19.5,7.2,19.5
			s-9.8,15.2-1.4,45.1s34.7,32.9,34.7,32.9c-2.9,5.4-1.5,15.2-1.5,15.2s-17-6.9-24.2,2.2S13,141.5,13,141.5S0.4,139,0,148
			s18.4,14.4,24.5,9.8s-1.1-19.5-2.9-28.9s8.3-7.6,17.7-5.4c8,1.9,7.1,14,19.5,18.2c-0.8,25.1,23.9,39.9,26,54
			c2.2,14.8-13,22.7-20.6,15.2s-1.5-17,4.3-14.8s3.2,12.3,8.7,10.1s6.1-9.8-5.1-15.9s-23.1,6.9-18.8,19.5s24.9,20.6,36.5-1.1
			s-3.6-31.4-15.2-44.8c-5.2-5.7-8.1-13.1-8.3-20.8c20.5,1.1,30.6-13.7,34.2-18.4s15.5-10.1,19.1-1.1s-7.2,23.5-4.3,26.7
			s22,8.3,21.7-3.6S127.5,138.3,127.5,138.3"/>
		<path class="st0" d="M102.2,176.9c0,0,5.6,0.7,7.8,4.9s-0.5,7.7-4.9,7.7s-5.4-4.6-4-6.3S103.3,178.2,102.2,176.9"/>
		<path class="st0" d="M93.7,172.1c-1,0-1.8-0.8-1.8-1.8v-0.9c0-2.8,2.3-5.1,5.1-5.1h2.2c0.8,0.1,1.5-0.5,1.6-1.3
			c0.1-0.8-0.5-1.5-1.3-1.6c-0.1,0-0.2,0-0.2,0H85.7c-2.8-0.1-5-2.5-4.9-5.3c0.1-2.6,2.2-4.8,4.9-4.9h23.1c0.8,0,1.5-0.7,1.5-1.5
			c0-0.8-0.7-1.5-1.5-1.5h-15c-2.8-0.1-5-2.5-4.9-5.3c0.1-2.6,2.2-4.8,4.9-4.9h3.2c1-0.1,1.9,0.7,1.9,1.7s-0.7,1.9-1.7,1.9
			c-0.1,0-0.2,0-0.3,0h-3.3c-0.8,0-1.5,0.7-1.5,1.5c0,0.8,0.7,1.5,1.5,1.5h15c2.8,0.1,5,2.5,4.9,5.3c-0.1,2.6-2.2,4.8-4.9,4.9H85.7
			c-0.8,0-1.5,0.7-1.5,1.5c0,0.8,0.7,1.5,1.5,1.5h13.4c2.8-0.1,5.2,2.1,5.3,4.9c0.1,2.8-2.1,5.2-4.9,5.3c-0.2,0-0.3,0-0.5,0h-2.2
			c-0.8,0-1.4,0.6-1.4,1.4v0.9C95.5,171.3,94.7,172.1,93.7,172.1L93.7,172.1"/>
	</g>
</g>
</svg>
